<svg xmlns="http://www.w3.org/2000/svg"
 width="1060" height="316"
 viewBox="0 0 1060 316"
 preserveAspectRatio="xMidYMid meet">
<g transform="translate(0,316) scale(0.1,-0.1)"
fill="#ffffff" stroke="none">
<path d="M1689 3129 c-12 -17 -31 -59 -42 -92 -15 -48 -21 -102 -26 -232 l-6
-170 -23 90 c-13 50 -25 96 -27 103 -8 25 -27 11 -47 -35 -17 -40 -20 -60 -15
-137 3 -62 13 -113 30 -158 13 -38 23 -68 22 -68 -1 0 -26 36 -55 80 -60 91
-75 93 -74 9 0 -40 11 -71 50 -149 l50 -98 -33 16 c-18 8 -35 13 -38 10 -13
-13 9 -58 51 -105 42 -48 43 -51 21 -57 -21 -5 -20 -8 21 -49 l43 -43 -26 -12
c-14 -6 -25 -18 -25 -26 0 -8 17 -28 37 -44 37 -30 38 -30 19 -51 -15 -16 -16
-24 -7 -35 6 -7 25 -20 42 -27 25 -10 28 -14 15 -21 -27 -15 -18 -36 21 -49
33 -11 35 -13 18 -25 -16 -12 -15 -14 18 -30 32 -15 34 -19 20 -30 -14 -10
-15 -15 -5 -27 7 -8 26 -20 42 -27 27 -11 29 -14 14 -25 -10 -6 -14 -17 -10
-23 4 -6 25 -17 46 -23 22 -7 40 -18 40 -24 0 -7 14 -18 30 -25 23 -10 28 -16
20 -25 -13 -16 -8 -20 48 -34 l43 -12 -22 -18 -22 -17 27 -21 c18 -14 22 -23
14 -26 -9 -4 -3 -14 17 -31 23 -20 26 -26 13 -26 -32 0 -19 -18 25 -33 23 -9
34 -16 25 -16 -34 -2 -18 -22 34 -45 31 -14 47 -26 40 -30 -20 -12 -5 -24 41
-31 77 -13 76 -24 -2 -25 -73 0 -74 0 -56 -20 14 -15 15 -23 6 -34 -9 -11 0
-19 52 -41 42 -19 64 -34 63 -44 -1 -10 19 -24 60 -39 37 -15 64 -32 70 -46 5
-11 23 -27 41 -35 17 -8 34 -22 36 -32 3 -13 14 -19 31 -19 14 0 26 -4 26 -10
0 -5 9 -10 21 -10 26 0 49 54 49 117 0 48 0 48 33 46 17 -1 42 -5 54 -9 16 -4
25 -1 29 10 6 15 9 15 30 -5 21 -20 24 -20 24 -5 0 10 5 14 11 10 7 -4 29 -8
50 -10 29 -3 39 0 39 11 0 22 9 18 32 -10 11 -14 25 -24 31 -23 7 1 22 -3 35
-10 12 -7 22 -9 22 -5 0 4 15 -8 34 -26 21 -20 36 -29 40 -22 4 6 4 16 0 23
-4 6 9 -1 29 -16 31 -24 38 -26 43 -12 5 14 8 14 30 -1 22 -14 24 -14 24 2 0
15 5 13 27 -9 22 -22 28 -24 35 -12 7 13 12 13 38 -2 28 -16 30 -16 42 1 12
17 16 17 49 3 20 -8 39 -12 43 -9 3 4 6 15 6 25 0 10 2 18 5 18 4 0 19 -7 36
-15 29 -16 55 -12 44 6 -8 12 -6 12 60 -6 31 -8 63 -11 71 -8 13 5 12 9 -5 27
l-20 21 97 0 c79 0 103 4 127 19 27 18 27 20 9 26 -10 4 -44 11 -74 15 l-55 8
76 12 c95 16 157 43 192 85 15 18 26 35 23 37 -3 3 -37 0 -76 -7 -39 -7 -73
-10 -75 -8 -3 2 31 19 74 36 99 41 190 100 225 144 24 32 33 58 21 58 -3 0
-31 -13 -63 -29 -69 -35 -277 -125 -312 -136 -24 -7 -24 -6 8 27 17 19 32 42
32 51 0 9 -2 17 -5 17 -2 0 -39 -18 -82 -39 -127 -64 -183 -75 -378 -76 l-170
0 -58 33 c-100 57 -155 73 -291 88 -71 7 -131 16 -134 19 -3 2 0 23 7 45 11
36 15 40 44 40 l32 0 -40 34 c-22 19 -51 37 -64 41 -17 4 -49 -6 -107 -34 -71
-34 -88 -38 -112 -30 -36 13 -70 56 -138 180 -78 143 -104 179 -181 246 -142
124 -162 145 -196 211 -44 85 -101 236 -124 333 -14 56 -18 111 -17 222 1 130
-1 148 -15 145 -9 -2 -28 -27 -43 -56 l-27 -53 -7 38 c-4 20 -4 145 -1 275 4
140 3 238 -3 238 -5 0 -19 -14 -31 -31z"/>
<path d="M256 2413 c-11 -99 -96 -1146 -96 -1180 l0 -32 383 -4 c272 -2 393
-7 422 -16 21 -7 54 -28 72 -46 27 -27 33 -41 33 -76 0 -56 -28 -103 -78 -128
-144 -74 -455 -36 -691 83 -29 15 -55 26 -57 24 -5 -6 -234 -506 -234 -513 0
-10 142 -72 229 -99 46 -14 137 -38 204 -52 97 -20 162 -27 317 -31 208 -6
311 3 447 38 158 41 329 146 418 257 61 76 110 178 136 282 18 69 21 104 16
185 -3 76 -12 122 -34 186 -16 47 -46 111 -67 142 -87 131 -243 227 -446 273
-36 8 -140 18 -232 21 l-168 6 0 52 c0 29 3 73 6 99 l7 46 338 0 c187 0 339 2
339 5 0 3 -10 19 -22 36 -19 25 -21 34 -11 59 9 24 8 32 -8 46 -11 10 -19 30
-19 51 0 21 -11 48 -30 75 -21 29 -30 53 -30 80 0 21 5 46 11 56 8 13 4 30
-15 75 l-26 57 -554 0 -554 0 -6 -57z"/>
<path d="M2365 2290 c-96 -13 -216 -47 -310 -86 -47 -20 -89 -43 -92 -50 -6
-16 37 -114 73 -165 13 -20 61 -64 105 -99 88 -69 153 -143 194 -219 l26 -47
62 13 c76 16 126 16 203 2 147 -27 255 -123 305 -274 16 -47 20 -51 71 -68 29
-9 91 -36 137 -59 75 -38 93 -42 171 -46 95 -5 229 10 309 34 50 15 51 15 51
55 0 107 -69 329 -142 456 -89 156 -238 308 -391 399 -96 57 -198 98 -327 131
-73 19 -128 25 -240 28 -80 2 -172 0 -205 -5z"/>
<path d="M5937 1836 c-91 -25 -142 -105 -118 -185 6 -23 23 -49 40 -60 15 -11
65 -30 112 -43 56 -16 84 -28 84 -38 0 -12 -15 -15 -70 -14 -44 0 -82 6 -101
17 l-31 16 -22 -54 c-13 -30 -20 -59 -16 -65 11 -18 115 -42 183 -42 40 0 84
7 110 17 78 32 116 106 92 179 -6 20 -24 45 -40 56 -16 11 -64 29 -107 40 -42
11 -81 24 -86 29 -18 18 6 31 59 31 30 0 68 -7 84 -15 16 -8 31 -11 34 -7 3 4
14 31 25 59 l20 51 -27 11 c-40 16 -113 31 -147 30 -16 0 -52 -6 -78 -13z"/>
<path d="M6848 1836 c-114 -31 -178 -115 -178 -230 0 -72 23 -127 71 -173 19
-18 51 -39 73 -48 55 -23 154 -21 213 5 59 26 89 53 116 105 16 30 21 58 21
110 0 53 -5 80 -21 111 -25 46 -72 90 -119 110 -48 20 -125 25 -176 10z m140
-151 c17 -20 22 -39 22 -78 0 -31 -6 -62 -15 -74 -20 -28 -75 -46 -106 -34
-13 5 -33 19 -44 31 -15 16 -20 36 -20 77 0 49 3 57 34 85 28 25 39 29 70 24
21 -3 45 -16 59 -31z"/>
<path d="M4440 1610 l0 -230 75 0 75 0 0 59 c0 40 5 62 15 71 9 7 17 11 18 9
2 -2 25 -34 52 -71 l49 -68 89 0 c70 0 87 3 80 13 -6 6 -47 63 -92 125 -73
100 -81 116 -69 130 8 10 46 54 86 98 40 45 72 84 72 88 0 3 -36 6 -79 6 l-79
0 -69 -79 -68 -79 -5 76 -5 77 -72 3 -73 3 0 -231z"/>
<path d="M4940 1610 l0 -230 185 0 186 0 -3 58 -3 57 -107 3 c-107 3 -108 3
-108 27 0 25 1 25 90 25 l90 0 0 60 0 60 -90 0 c-89 0 -90 0 -90 25 l0 25 105
0 105 0 0 60 0 60 -180 0 -180 0 0 -230z"/>
<path d="M5330 1831 c0 -5 36 -72 80 -148 l80 -138 0 -82 0 -83 75 0 75 0 0
79 0 80 84 145 c46 79 82 147 78 150 -3 3 -33 6 -67 6 -71 0 -74 -2 -127 -98
l-35 -63 -44 78 -44 78 -78 3 c-45 2 -77 -1 -77 -7z"/>
<path d="M6230 1775 l0 -65 60 0 60 0 0 -165 0 -165 80 0 80 0 0 165 0 165 65
0 66 0 -3 63 -3 62 -202 3 -203 2 0 -65z"/>
<path d="M7227 1833 c-4 -3 -7 -107 -7 -230 l0 -223 75 0 75 0 0 95 c0 52 3
95 8 94 4 0 41 -43 82 -95 l75 -94 62 0 63 0 0 230 0 231 -72 -3 -73 -3 -3
-98 -3 -98 -81 100 -81 101 -57 0 c-31 0 -60 -3 -63 -7z"/>
<path d="M7750 1610 l0 -230 185 0 185 0 0 60 0 60 -110 0 -110 0 0 25 c0 25
0 25 95 25 l96 0 -3 58 -3 57 -92 3 c-91 3 -93 3 -93 27 0 25 0 25 105 25
l105 0 0 60 0 60 -180 0 -180 0 0 -230z"/>
<path d="M1554 1782 c-6 -9 -23 -38 -38 -64 l-27 -47 54 -34 c72 -46 147 -123
190 -194 20 -32 48 -94 63 -138 22 -66 28 -102 32 -205 5 -154 -10 -228 -74
-357 -33 -67 -66 -114 -116 -168 l-70 -75 43 -58 c95 -128 251 -254 402 -326
151 -72 285 -105 462 -113 213 -10 389 27 580 122 61 30 140 77 176 104 81 62
193 179 248 259 49 73 106 184 131 257 l18 53 -41 5 c-50 7 -123 0 -154 -15
-12 -6 -39 -8 -59 -5 -20 4 -44 2 -54 -3 -10 -5 -42 -5 -81 1 -230 34 -237 35
-269 62 -17 15 -39 27 -49 27 -10 0 -31 -21 -49 -49 -37 -57 -81 -93 -159
-128 -45 -21 -77 -27 -152 -31 -70 -3 -114 0 -161 12 -73 19 -145 62 -190 112
-36 42 -73 112 -91 174 -7 25 -21 55 -32 67 -13 15 -20 40 -22 84 -3 52 -8 64
-27 78 -50 33 -86 84 -114 156 -15 40 -36 77 -46 82 -9 4 -27 23 -40 42 -13
19 -45 46 -73 60 -35 19 -53 35 -60 56 -5 17 -17 36 -26 42 -9 7 -20 24 -23
38 -4 14 -14 34 -24 45 -34 38 -47 54 -57 72 -10 17 -11 17 -21 0z m446 -1091
c0 -10 -9 -44 -20 -76 -22 -65 -26 -64 65 -27 l50 20 32 -28 31 -28 -106 -38
c-84 -29 -116 -46 -150 -78 l-42 -40 -27 27 -27 27 36 37 c30 31 42 57 69 150
l32 112 28 -20 c16 -11 29 -28 29 -38z m1071 -77 c11 -14 9 -19 -15 -37 -16
-11 -43 -21 -60 -21 -26 -1 -31 -5 -31 -26 0 -28 -1 -27 121 -14 58 6 62 5 82
-21 12 -15 22 -39 22 -54 0 -36 -33 -87 -69 -106 -39 -20 -105 -20 -122 1 -11
13 -8 19 17 39 21 16 34 21 46 14 23 -13 62 20 52 45 -6 15 -13 17 -48 11 -95
-16 -107 -17 -131 -11 -32 8 -58 58 -50 97 4 16 24 44 48 64 32 28 49 35 83
35 26 0 47 -6 55 -16z m-800 -98 c67 -27 83 -38 81 -53 -7 -34 -20 -37 -72
-15 l-51 21 -9 -25 c-6 -14 -10 -29 -10 -34 0 -5 20 -16 45 -26 39 -14 44 -20
39 -38 -4 -12 -8 -23 -10 -25 -4 -4 -28 3 -90 26 -9 3 -34 -37 -34 -56 0 -5
23 -18 50 -29 49 -21 58 -34 41 -61 -7 -11 -22 -9 -83 13 -40 15 -80 31 -88
36 -11 7 -5 31 34 132 27 68 52 133 57 146 5 12 10 22 12 22 2 0 41 -15 88
-34z m574 -38 c15 -14 28 -38 31 -59 5 -28 1 -41 -20 -65 l-25 -31 50 -49 49
-49 -37 -12 -37 -13 -53 52 c-29 28 -56 49 -59 45 -4 -4 0 -32 8 -62 9 -31 13
-57 9 -59 -3 -2 -20 -7 -36 -10 l-30 -7 -39 143 c-21 79 -39 147 -40 152 -2
14 103 44 156 45 35 1 53 -5 73 -21z m-265 -170 l47 -158 -37 0 c-33 0 -39 4
-49 30 -10 29 -12 30 -71 30 -55 0 -61 -2 -70 -25 -8 -21 -16 -25 -49 -25
l-40 0 18 43 c10 23 39 93 66 155 l47 113 45 -3 46 -3 47 -157z"/>
<path d="M2723 433 c-13 -2 -23 -8 -23 -12 0 -5 5 -22 11 -40 12 -33 22 -37
64 -21 22 8 26 15 23 42 -2 27 -7 33 -28 34 -14 1 -35 0 -47 -3z"/>
<path d="M2461 337 c-11 -27 -21 -53 -21 -58 0 -5 9 -9 19 -9 11 0 26 -3 35
-6 12 -5 16 0 15 17 0 13 -6 42 -13 64 l-13 40 -22 -48z"/>
<path d="M4530 1025 c-25 -8 -58 -27 -74 -44 -54 -56 -52 -147 3 -194 16 -13
51 -29 77 -36 86 -22 119 -36 119 -51 0 -11 -14 -16 -46 -18 -40 -3 -81 7
-139 32 -11 5 -21 -8 -38 -50 -27 -66 -27 -65 57 -90 72 -22 195 -15 242 12
19 11 44 36 57 55 19 28 23 43 19 83 -4 40 -11 55 -35 78 -18 15 -58 34 -89
43 -100 27 -108 30 -111 47 -6 32 56 33 154 3 18 -6 24 1 43 47 20 48 21 54 5
65 -22 16 -105 33 -157 32 -23 0 -62 -7 -87 -14z"/>
<path d="M5029 1031 c-76 -24 -142 -85 -165 -154 -36 -107 6 -223 100 -282 40
-24 62 -30 123 -33 63 -4 81 -1 127 22 29 14 61 34 70 45 16 18 15 21 -31 64
l-47 45 -29 -24 c-20 -17 -40 -24 -70 -24 -67 1 -97 36 -97 115 0 38 5 52 29
76 37 37 84 39 134 5 l35 -24 47 42 48 42 -42 36 c-60 51 -157 71 -232 49z"/>
<path d="M6710 1031 c-67 -21 -123 -67 -153 -126 -23 -46 -30 -116 -17 -166
17 -64 53 -114 106 -145 35 -21 64 -28 118 -32 59 -4 81 0 123 18 28 12 62 33
74 46 l24 25 -50 44 -50 43 -28 -24 c-20 -17 -41 -24 -69 -24 -30 0 -46 7 -69
29 -25 25 -29 37 -29 81 0 44 4 56 29 81 38 37 84 39 135 4 l37 -25 46 44 47
44 -35 31 c-54 50 -165 74 -239 52z"/>
<path d="M7790 1028 c-84 -24 -125 -81 -117 -162 4 -41 10 -55 37 -77 17 -15
50 -32 73 -38 23 -6 61 -15 85 -21 32 -8 42 -15 40 -28 -5 -26 -83 -27 -147
-3 l-53 20 -24 -56 c-29 -64 -28 -64 50 -88 70 -21 181 -19 231 4 63 29 88 62
93 125 4 50 2 56 -29 90 -28 29 -50 40 -119 59 -58 15 -86 28 -88 39 -4 23 44
32 99 18 77 -20 79 -19 101 35 18 46 18 50 3 62 -23 16 -106 33 -158 32 -23 0
-58 -5 -77 -11z"/>
<path d="M8280 1031 c-67 -21 -123 -67 -153 -126 -54 -108 -13 -251 91 -312
33 -20 62 -27 116 -31 59 -4 81 0 123 18 28 12 62 33 74 46 l24 25 -50 44 -50
43 -28 -24 c-20 -17 -41 -24 -69 -24 -30 0 -46 7 -69 29 -25 25 -29 37 -29 81
0 44 4 56 29 81 38 37 84 39 135 4 l37 -25 46 44 47 44 -35 31 c-54 50 -165
74 -239 52z"/>
<path d="M9280 1025 c-99 -31 -160 -117 -160 -225 0 -104 43 -172 135 -216 36
-17 67 -24 110 -23 70 0 121 16 169 53 39 29 75 98 83 155 14 105 -51 213
-153 250 -63 24 -120 26 -184 6z m151 -144 c24 -24 29 -38 29 -76 0 -75 -30
-114 -88 -115 -44 0 -68 14 -87 50 -40 77 5 169 83 170 24 0 42 -8 63 -29z"/>
<path d="M9837 1026 c-109 -39 -167 -121 -167 -236 0 -60 39 -140 84 -175 50
-38 101 -54 171 -54 108 -1 206 65 234 158 6 21 11 61 11 88 0 63 -38 142 -87
178 -66 51 -169 68 -246 41z m127 -127 c27 -13 56 -64 56 -98 0 -34 -26 -88
-48 -100 -30 -16 -84 -13 -109 4 -13 9 -27 34 -33 56 -14 50 1 100 37 129 29
23 60 25 97 9z"/>
<path d="M5360 800 l0 -230 75 0 75 0 0 230 0 230 -75 0 -75 0 0 -230z"/>
<path d="M5597 1023 c-4 -3 -7 -107 -7 -230 l0 -223 190 0 191 0 -3 58 -3 57
-107 3 c-107 3 -108 3 -108 27 0 25 1 25 90 25 l90 0 0 60 0 60 -90 0 c-89 0
-90 0 -90 25 l0 25 105 0 105 0 0 60 0 60 -178 0 c-98 0 -182 -3 -185 -7z"/>
<path d="M6040 800 l0 -230 75 0 74 0 3 96 3 96 78 -96 78 -96 65 0 64 0 0
230 0 230 -75 0 -74 0 -3 -101 -3 -101 -80 100 -80 101 -62 0 -63 1 0 -230z"/>
<path d="M7040 800 l0 -230 185 0 185 0 0 60 0 60 -110 0 -110 0 0 25 c0 24 2
24 93 27 l92 3 0 55 0 55 -92 3 c-91 3 -93 3 -93 27 0 25 0 25 105 25 l105 0
0 60 0 60 -180 0 -180 0 0 -230z"/>
<path d="M8610 800 l0 -230 75 0 75 0 0 85 0 85 65 0 65 0 0 -85 0 -85 80 0
80 0 0 230 0 231 -77 -3 -78 -3 -3 -77 -3 -78 -64 0 -65 0 0 80 0 80 -75 0
-75 0 0 -230z"/>
<path d="M10240 800 l0 -230 175 0 175 0 0 60 0 60 -100 0 -100 0 0 170 0 170
-75 0 -75 0 0 -230z"/>
</g>
</svg>
