<svg xmlns="http://www.w3.org/2000/svg"
 width="2225" height="258"
 viewBox="0 0 2225 258"
 preserveAspectRatio="xMidYMid meet">
<!-- TEDx portion (red) -->
<g transform="translate(0,258) scale(0.1,-0.1)"
fill="#eb0028" stroke="none">
<path d="M10 2320 l0 -250 275 0 275 0 0 -740 0 -740 305 0 305 0 0 740 0 740
280 0 280 0 0 250 0 250 -860 0 -860 0 0 -250z"/>
<path d="M1830 1580 l0 -990 835 0 835 0 0 250 0 250 -530 0 -530 0 0 125 0
125 530 0 530 0 0 240 0 240 -530 0 -530 0 0 125 0 125 530 0 530 0 0 250 0
250 -835 0 -835 0 0 -990z"/>
<path d="M3610 1580 l0 -991 563 4 562 4 96 25 c194 52 329 127 437 243 107
114 178 260 218 445 25 117 26 419 1 538 -20 100 -58 215 -93 285 -39 77 -105
165 -166 224 -94 88 -196 144 -343 186 -66 20 -102 21 -672 24 l-603 4 0 -991z
m915 480 c39 -6 98 -24 132 -39 118 -56 193 -151 230 -294 12 -47 14 -90 10
-177 -6 -121 -19 -175 -60 -256 -25 -49 -89 -116 -137 -146 -67 -40 -123 -50
-302 -55 l-178 -5 0 491 0 491 118 0 c64 0 149 -5 187 -10z"/>
<path d="M5618 2543 c124 -180 382 -562 382 -568 0 -6 -224 -340 -357 -532
l-64 -93 223 0 223 1 60 104 c91 158 114 195 123 195 4 0 48 -67 97 -150 l90
-150 222 0 222 0 -111 163 c-228 334 -308 455 -308 463 0 5 90 140 199 299
l198 290 -221 3 c-121 1 -222 -1 -224 -6 -4 -12 -139 -244 -154 -266 -12 -16
-19 -8 -77 95 -35 63 -73 129 -83 147 l-20 32 -219 0 -220 0 19 -27z"/>
</g>
<!-- Breckenridge portion (white) -->
<g transform="translate(0,258) scale(0.1,-0.1)"
fill="#ffffff" stroke="none">
<path d="M7550 1545 l0 -967 393 5 c324 3 402 7 450 20 170 49 285 160 329
315 22 82 24 212 3 301 -20 84 -66 169 -124 227 -49 50 -149 104 -192 104 -14
0 -29 3 -32 7 -4 3 24 21 62 40 73 35 137 96 172 166 34 65 52 157 53 262 0
76 -5 117 -22 171 -42 135 -140 234 -283 286 -62 22 -77 23 -436 26 l-373 3 0
-966z m780 886 c83 -29 152 -73 190 -121 17 -21 42 -65 57 -97 23 -49 28 -75
31 -164 4 -113 -9 -182 -49 -262 -26 -50 -84 -114 -131 -144 -76 -47 -126 -53
-485 -53 l-333 0 0 436 0 436 328 -4 c308 -4 331 -6 392 -27z m-50 -901 c162
-20 300 -113 361 -245 44 -93 56 -175 41 -277 -7 -49 -23 -104 -39 -136 -34
-67 -110 -145 -172 -176 -101 -52 -142 -56 -515 -56 l-346 0 0 450 0 450 293
0 c161 0 331 -5 377 -10z"/>
<path d="M12760 1545 l0 -965 25 0 25 0 0 298 0 297 98 97 97 97 313 -394
c303 -383 314 -395 347 -395 l35 0 -149 188 c-82 103 -230 288 -329 412 l-181
225 317 312 317 312 -38 0 c-37 1 -50 -10 -423 -376 -211 -208 -389 -379 -394
-381 -7 -2 -10 215 -10 617 l0 621 -25 0 -25 0 0 -965z"/>
<path d="M19130 2085 c0 -234 -3 -425 -7 -425 -5 0 -25 38 -46 83 -46 100
-125 191 -210 241 -64 38 -168 66 -242 66 -74 0 -178 -28 -242 -66 -32 -19
-83 -61 -114 -94 -116 -127 -185 -311 -196 -530 -3 -68 -1 -151 6 -204 30
-224 127 -412 262 -512 95 -70 221 -99 350 -83 95 12 185 54 255 121 69 65
109 122 144 205 15 34 30 60 33 56 4 -3 7 -87 7 -185 l0 -178 25 0 25 0 0 965
0 965 -25 0 -25 0 0 -425z m-375 -110 c63 -18 111 -48 171 -105 58 -55 103
-124 137 -212 46 -115 60 -199 60 -363 -1 -128 -4 -164 -26 -247 -31 -118 -84
-222 -149 -293 -98 -108 -202 -150 -349 -143 -76 4 -97 9 -162 41 -90 45 -166
121 -219 223 -47 90 -75 192 -89 325 -18 186 15 383 89 524 46 86 134 182 204
220 29 16 82 35 118 42 72 13 139 9 215 -12z"/>
<path d="M17648 2399 c-22 -13 -24 -62 -2 -83 21 -22 50 -20 74 4 24 24 25 38
4 68 -16 23 -48 28 -76 11z"/>
<path d="M9560 2040 c-152 -19 -290 -106 -349 -217 -23 -45 -31 -23 -31 92 l0
115 -25 0 -25 0 0 -725 0 -725 25 0 25 0 0 478 c0 262 5 511 10 551 20 151
104 272 235 337 59 29 87 37 154 41 l81 6 0 28 c0 32 0 32 -100 19z"/>
<path d="M10307 2034 c-101 -24 -166 -63 -252 -149 -44 -44 -95 -106 -114
-138 -44 -75 -85 -201 -101 -309 -15 -103 -9 -251 15 -358 21 -92 79 -219 134
-293 67 -91 179 -172 281 -206 66 -21 187 -31 263 -21 93 12 170 40 248 92 60
40 172 163 166 182 -2 5 -11 14 -20 20 -13 9 -20 6 -34 -14 -60 -86 -159 -166
-253 -204 -58 -24 -224 -33 -303 -16 -86 17 -185 71 -247 134 -121 122 -192
294 -202 486 l-3 65 568 3 568 2 -7 93 c-15 202 -78 351 -204 478 -49 50 -97
87 -137 108 -117 58 -246 74 -366 45z m263 -61 c111 -36 218 -123 287 -231 54
-83 93 -202 100 -299 l6 -83 -540 0 -540 0 9 63 c11 81 43 187 78 257 40 80
111 169 167 212 64 49 145 85 213 97 66 11 158 4 220 -16z"/>
<path d="M11767 2036 c-128 -30 -260 -122 -339 -238 -82 -122 -124 -244 -137
-405 -23 -271 54 -514 215 -677 68 -69 167 -126 254 -146 81 -19 213 -15 291
9 83 26 171 83 228 147 50 57 107 169 117 232 7 43 7 44 -22 40 -24 -2 -29 -9
-36 -42 -5 -21 -22 -67 -38 -101 -20 -43 -50 -81 -91 -119 -67 -62 -119 -92
-194 -112 -65 -18 -186 -17 -251 0 -174 46 -318 198 -385 405 -26 79 -32 118
-36 221 -6 142 6 238 42 341 36 105 81 176 159 255 49 49 92 81 137 102 185
88 408 48 542 -98 58 -62 100 -139 112 -202 6 -34 11 -38 36 -38 16 0 29 4 29
9 0 5 -9 37 -20 72 -46 151 -162 272 -315 328 -75 28 -215 36 -298 17z"/>
<path d="M14367 2034 c-101 -24 -166 -63 -252 -149 -44 -44 -95 -106 -114
-138 -44 -75 -86 -202 -102 -306 -14 -101 -7 -257 16 -361 21 -92 79 -219 134
-293 67 -91 179 -172 281 -206 66 -21 187 -31 263 -21 93 12 170 40 247 91 59
40 173 165 167 183 -2 5 -11 14 -20 20 -13 9 -20 6 -34 -14 -60 -86 -159 -166
-253 -204 -58 -24 -224 -33 -303 -16 -86 17 -185 71 -247 134 -121 122 -192
294 -202 486 l-3 65 569 3 568 2 -7 83 c-11 136 -32 217 -81 316 -37 74 -63
110 -123 171 -50 51 -98 88 -138 109 -117 58 -246 74 -366 45z m263 -61 c110
-36 211 -118 287 -231 51 -77 94 -207 100 -304 l6 -78 -540 0 -540 0 9 63 c11
81 43 187 78 257 41 81 114 174 169 215 65 47 145 83 211 94 66 11 158 4 220
-16z"/>
<path d="M15860 2040 c-144 -18 -265 -88 -331 -190 -18 -28 -36 -50 -41 -50
-4 0 -8 52 -8 115 l0 115 -25 0 -25 0 0 -725 0 -725 25 0 25 0 0 488 c0 268 4
514 9 547 23 153 103 265 237 331 64 32 85 37 167 42 142 7 231 -19 326 -96
24 -19 59 -59 78 -89 68 -106 66 -91 70 -685 l4 -538 25 0 24 0 0 514 c0 299
-4 536 -10 567 -15 80 -73 191 -130 248 -28 26 -76 62 -107 78 -89 47 -208 67
-313 53z"/>
<path d="M17290 2040 c-155 -20 -272 -94 -357 -226 -10 -15 -12 4 -12 99 l-1
117 -30 0 -30 0 0 -725 0 -725 30 0 29 0 3 548 3 547 32 67 c17 37 52 89 77
116 76 81 192 132 304 132 51 0 52 0 52 30 0 33 0 33 -100 20z"/>
<path d="M20016 2034 c-117 -28 -229 -111 -303 -224 -43 -66 -80 -155 -105
-256 -19 -75 -22 -115 -22 -254 1 -136 5 -179 22 -245 12 -44 42 -121 66 -170
83 -169 220 -273 386 -293 233 -29 435 75 528 270 20 43 41 78 45 78 5 0 7
-116 4 -257 -5 -279 -11 -317 -63 -413 -31 -57 -97 -121 -157 -151 -64 -33
-157 -52 -262 -53 -55 0 -125 6 -155 13 -128 31 -244 110 -283 193 -18 38 -31
45 -56 29 -11 -7 -8 -18 14 -60 38 -68 111 -136 188 -171 123 -57 300 -75 442
-45 39 8 98 29 133 46 78 38 158 117 194 189 14 30 33 90 42 132 14 67 16 183
16 858 l0 780 -25 0 -25 0 0 -185 c0 -102 -3 -185 -7 -185 -5 1 -27 40 -50 88
-49 103 -122 186 -206 236 -67 39 -170 66 -249 65 -29 0 -80 -7 -112 -15z
m250 -60 c28 -7 78 -32 112 -54 100 -67 161 -155 212 -308 43 -129 58 -278 41
-425 -6 -61 -23 -145 -37 -187 -26 -77 -74 -162 -121 -216 -82 -93 -199 -144
-332 -144 -137 0 -251 49 -340 146 -56 62 -113 169 -136 258 -25 101 -36 245
-25 357 12 130 41 233 88 323 46 87 134 183 204 221 29 16 82 35 118 42 72 13
138 9 216 -13z"/>
<path d="M21545 2038 c-27 -5 -81 -24 -120 -43 -124 -60 -225 -168 -290 -309
-43 -91 -63 -172 -74 -291 -18 -186 20 -390 99 -528 37 -66 113 -154 166 -195
56 -43 147 -87 214 -102 30 -7 100 -13 155 -12 109 0 180 18 268 67 60 34 149
115 187 171 l30 42 -24 15 c-21 14 -24 14 -39 -12 -26 -44 -121 -133 -179
-168 -71 -43 -154 -63 -258 -63 -141 0 -255 42 -351 128 -66 59 -141 173 -168
255 -31 91 -51 194 -51 260 l0 57 566 0 567 0 -6 98 c-3 53 -13 124 -22 157
-24 90 -87 213 -143 278 -58 68 -138 131 -202 160 -95 43 -217 56 -325 35z
m230 -60 c71 -18 158 -71 226 -139 49 -48 77 -88 108 -150 46 -94 68 -175 73
-264 l3 -60 -537 -3 c-525 -2 -538 -2 -538 17 0 44 31 174 56 238 15 37 45 96
66 130 77 123 215 222 338 242 59 10 140 5 205 -11z"/>
<path d="M17650 1305 l0 -725 30 0 30 0 0 725 0 725 -30 0 -30 0 0 -725z"/>
</g>
</svg>
